<svg xmlns="http://www.w3.org/2000/svg" viewBox="0 0 217.04 227.48"><defs><style>.cls-1{fill:#fff;}</style></defs><title>compassBrokenWhite_compasBrokenWhite</title><g id="Layer_3" data-name="Layer 3"><path class="cls-1" d="M189.91,81.36a77,77,0,0,1-92.79,113.4l-.19.54a77.57,77.57,0,0,0,66-140l-.06.61A76.43,76.43,0,0,1,189.91,81.36Z"/><path class="cls-1" d="M76.24,186.77A77,77,0,0,1,152.42,52.9l.07-.61A77.82,77.82,0,0,0,84.71,49a3.71,3.71,0,0,1,0,.47l-.56-.06v-.16a77.54,77.54,0,0,0,2.34,143.1l.2-.54A77.81,77.81,0,0,1,76.24,186.77Z"/><path class="cls-1" d="M182.93,85.86a68.7,68.7,0,0,1-76.29,103.35l-.44.46A69.26,69.26,0,0,0,162,64.36l-.07.62A68.27,68.27,0,0,1,182.93,85.86Z"/><path class="cls-1" d="M82.12,180.56a68.69,68.69,0,0,1,68.68-119l.63.37.07-.63A69.26,69.26,0,1,0,89.2,184.55l.19-.53A69.1,69.1,0,0,1,82.12,180.56Z"/><path class="cls-1" d="M59.5,52.51l0,.09c-1.44,4.42,4.15,8.81,4.38,9l.35-.46c0-.05-5.43-4.24-4.22-8.26l5.19-3.33c-.49.11-1,.2-1.48.27Z"/><path class="cls-1" d="M66.92,48.41l5-3.25a13.62,13.62,0,0,0,1.38-1.56L64.92,49A15.38,15.38,0,0,0,66.92,48.41Z"/><path class="cls-1" d="M78.7,40.25l-.11,0-4,2.58c-.26.42-.55.83-.85,1.23l5-3.2c5.75,1.32,5.51,7.36,5.42,8.42L84.7,49C84.76,47.31,84.53,41.51,78.7,40.25Z"/><path class="cls-1" d="M69.6,47a14.71,14.71,0,0,1-2.68,1.37l-1.77,1.14A15.49,15.49,0,0,0,73.75,44L72,45.15A15,15,0,0,1,69.6,47Z"/><path class="cls-1" d="M49.17,42.61a14.76,14.76,0,1,1,24.18,1l1.24-.81a15.32,15.32,0,1,0-10.9,7l1.24-.8A14.8,14.8,0,0,1,49.17,42.61Z"/><path class="cls-1" d="M64.92,49l-1.24.8q.74-.1,1.47-.27l1.77-1.14A15.38,15.38,0,0,1,64.92,49Z"/><path class="cls-1" d="M134.09,117.29a6.7,6.7,0,0,1-4.51,10.24l-.14.59a7.25,7.25,0,0,0,5.15-11.1,7.11,7.11,0,0,0-2.1-2.13l-.13.6A6.59,6.59,0,0,1,134.09,117.29Z"/><path class="cls-1" d="M112.91,121.83a6.7,6.7,0,0,1,9-9.4l.14-.58a7.27,7.27,0,1,0-3.14,13.61l.13-.57A6.7,6.7,0,0,1,112.91,121.83Z"/><circle class="cls-1" cx="82.48" cy="68.38" r="2.13"/><circle class="cls-1" cx="129.26" cy="59.55" r="2.13"/><circle class="cls-1" cx="178.34" cy="89.59" r="2.13"/><circle class="cls-1" cx="186.42" cy="135.62" r="2.13"/><circle class="cls-1" cx="159.14" cy="174.74" r="2.13"/><path class="cls-1" d="M111.31,181.44a2.13,2.13,0,1,0,2.94.64h0A2.12,2.12,0,0,0,111.31,181.44Z"/><circle class="cls-1" cx="64.35" cy="153.88" r="2.13"/><circle class="cls-1" cx="56.04" cy="106.69" r="2.13"/><polygon class="cls-1" points="167 96.07 139.12 123.08 138.99 123.21 152.2 158.63 127.9 134.81 127.75 135.46 153.62 160.82 139.65 123.36 169.23 94.71 134.4 106.63 134.25 107.28 167 96.07"/><polygon class="cls-1" points="114.9 129.1 80.03 142.98 106.53 116.41 106.65 116.28 94.69 81.99 120.23 105.97 123.69 104.79 123.84 104.14 120.37 105.33 93.4 80 106 116.13 77.69 144.52 114.76 129.76 117.34 132.29 117.49 131.64 114.9 129.1"/><path class="cls-1" d="M135.08,101.17l-1.31,5.67.63-.21,1.19-5.13,24.24-19,.1-.06L161.87,65l-.53-.34-1.94,17.5Z"/><path class="cls-1" d="M162,64.36l.94-8.43-.55-.32-.91,8.4Z"/><path class="cls-1" d="M99.12,187.24l-2.53,7.31.53.21,2.53-7.31Z"/><path class="cls-1" d="M119,173.57l8.8-38.11-.47-.47-8.82,38.14-16.32,5.41-2.84,8.17.53.2,2.74-7.91Z"/><path class="cls-1" d="M129.58,127.53l2.78-12a5.91,5.91,0,0,0-.52-.35L129,127.59C129.17,127.58,129.38,127.56,129.58,127.53Z"/><path class="cls-1" d="M132.49,114.89l1.76-7.61-.63.21L132,114.57Z"/><path class="cls-1" d="M128.85,128.18l-1.43,6.17.47.47,1.54-6.69A5.67,5.67,0,0,1,128.85,128.18Z"/></g></svg>