<svg xmlns="http://www.w3.org/2000/svg" viewBox="0 0 402.78 196.74"><defs><style>.cls-1{font-size:144px;fill:#fff;font-family:Montserrat-Bold, Montserrat;font-weight:700;}.cls-2{fill:#bbfaf6;}</style></defs><title>404</title><g id="Layer_2" data-name="Layer 2"><text class="cls-1" transform="translate(0 158.44)">4</text><text class="cls-1" transform="translate(296.09 158.44)">4</text></g><g id="Layer_3" data-name="Layer 3"><path class="cls-2" d="M358.34,95.71a77,77,0,0,1-92.79,113.4l-.19.54a77.57,77.57,0,0,0,66.05-140l-.07.61A76.54,76.54,0,0,1,358.34,95.71Z" transform="translate(-87.13 -33.64)"/><path class="cls-2" d="M244.67,201.12A77,77,0,0,1,320.85,67.25l.06-.61a77.79,77.79,0,0,0-67.77-3.26,2.42,2.42,0,0,1,0,.47l-.56-.06,0-.16A77.28,77.28,0,0,0,218.41,176.7a77.08,77.08,0,0,0,36.49,30l.19-.54A76.5,76.5,0,0,1,244.67,201.12Z" transform="translate(-87.13 -33.64)"/><path class="cls-2" d="M351.35,100.21a68.69,68.69,0,0,1-76.28,103.35l-.44.46A69.26,69.26,0,0,0,330.39,78.71l-.07.62A68.46,68.46,0,0,1,351.35,100.21Z" transform="translate(-87.13 -33.64)"/><path class="cls-2" d="M250.54,194.91a68.7,68.7,0,0,1,68.69-119l.63.37.07-.63a69.26,69.26,0,1,0-62.3,123.24l.18-.53A71,71,0,0,1,250.54,194.91Z" transform="translate(-87.13 -33.64)"/><path class="cls-2" d="M227.93,66.86l0,.09c-1.45,4.42,4.15,8.81,4.38,9l.35-.46s-5.44-4.24-4.22-8.25l5.18-3.34c-.48.11-1,.2-1.47.27Z" transform="translate(-87.13 -33.64)"/><path class="cls-2" d="M235.35,62.76l5-3.24A14.67,14.67,0,0,0,241.76,58l-8.41,5.42A15.38,15.38,0,0,0,235.35,62.76Z" transform="translate(-87.13 -33.64)"/><path class="cls-2" d="M247.13,54.6l-.11,0-4,2.58c-.27.42-.55.83-.86,1.23l5-3.2c5.76,1.32,5.51,7.36,5.43,8.42l.58-.25C253.19,61.66,253,55.86,247.13,54.6Z" transform="translate(-87.13 -33.64)"/><path class="cls-2" d="M238,61.39a14.73,14.73,0,0,1-2.68,1.37l-1.77,1.14a15.42,15.42,0,0,0,8.59-5.53l-1.76,1.13A15.44,15.44,0,0,1,238,61.39Z" transform="translate(-87.13 -33.64)"/><path class="cls-2" d="M217.6,57a14.76,14.76,0,1,1,24.17,1l1.25-.8a15.35,15.35,0,1,0-10.9,7l1.24-.8A14.8,14.8,0,0,1,217.6,57Z" transform="translate(-87.13 -33.64)"/><path class="cls-2" d="M233.35,63.37l-1.24.8q.73-.11,1.47-.27l1.77-1.14A15.38,15.38,0,0,1,233.35,63.37Z" transform="translate(-87.13 -33.64)"/><path class="cls-2" d="M302.52,131.65a6.7,6.7,0,0,1-2,9.26,6.63,6.63,0,0,1-2.51,1l-.13.59a7.25,7.25,0,0,0,3.05-13.23l-.13.6A6.63,6.63,0,0,1,302.52,131.65Z" transform="translate(-87.13 -33.64)"/><path class="cls-2" d="M281.34,136.19a6.7,6.7,0,0,1,9-9.4l.14-.59a7.27,7.27,0,1,0-3.15,13.61l.14-.57A6.71,6.71,0,0,1,281.34,136.19Z" transform="translate(-87.13 -33.64)"/><circle class="cls-2" cx="163.78" cy="49.08" r="2.13"/><circle class="cls-2" cx="210.56" cy="40.26" r="2.13"/><circle class="cls-2" cx="259.64" cy="70.3" r="2.13"/><circle class="cls-2" cx="267.71" cy="116.33" r="2.13"/><circle class="cls-2" cx="240.43" cy="155.45" r="2.13"/><path class="cls-2" d="M279.74,195.79a2.13,2.13,0,1,0,2.94.64h0A2.12,2.12,0,0,0,279.74,195.79Z" transform="translate(-87.13 -33.64)"/><circle class="cls-2" cx="145.64" cy="134.58" r="2.13"/><circle class="cls-2" cx="137.34" cy="87.4" r="2.13"/><polygon class="cls-2" points="248.3 76.78 220.42 103.78 220.28 103.92 233.5 139.34 209.19 115.52 209.04 116.17 234.91 141.53 220.95 104.06 250.53 75.42 215.7 87.33 215.55 87.98 248.3 76.78"/><polygon class="cls-2" points="196.2 109.8 161.33 123.69 187.82 97.11 187.94 96.99 175.99 62.7 201.53 86.67 204.99 85.49 205.14 84.84 201.67 86.03 174.69 60.7 187.29 96.84 158.99 125.23 196.06 110.46 198.64 113 198.79 112.34 196.2 109.8"/><path class="cls-2" d="M303.51,115.52l-1.31,5.68.63-.22,1.19-5.13,24.24-19,.1-.07,1.94-17.45-.53-.34-1.94,17.5Z" transform="translate(-87.13 -33.64)"/><path class="cls-2" d="M330.39,78.71l.93-8.43-.55-.32-.91,8.4Z" transform="translate(-87.13 -33.64)"/><path class="cls-2" d="M267.55,201.59,265,208.9l.53.21,2.53-7.31A4.87,4.87,0,0,1,267.55,201.59Z" transform="translate(-87.13 -33.64)"/><path class="cls-2" d="M287.38,187.92l8.8-38.11-.47-.47-8.81,38.14-16.32,5.41-2.85,8.17.54.2,2.73-7.91Z" transform="translate(-87.13 -33.64)"/><path class="cls-2" d="M298,141.88l2.79-12a5.91,5.91,0,0,0-.52-.35L297.4,142A4.09,4.09,0,0,0,298,141.88Z" transform="translate(-87.13 -33.64)"/><path class="cls-2" d="M300.92,129.24l1.76-7.61-.63.22-1.63,7.07Z" transform="translate(-87.13 -33.64)"/><path class="cls-2" d="M297.27,142.53l-1.43,6.17.47.47,1.55-6.69A5.87,5.87,0,0,1,297.27,142.53Z" transform="translate(-87.13 -33.64)"/></g></svg>