<svg xmlns="http://www.w3.org/2000/svg" viewBox="0 0 273.35 341.82"><defs><style>.cls-1{fill:#020202;}</style></defs><title>compass </title><g id="Layer_2" data-name="Layer 2"><path d="M160.84,363.39c-75.36,0-136.67-61.31-136.67-136.67S85.48,90,160.84,90s136.68,61.31,136.68,136.68S236.2,363.39,160.84,363.39ZM39.78,287.93a135.82,135.82,0,0,0,121.06,74.46c74.81,0,135.68-60.86,135.68-135.67S235.65,91,160.84,91,25.17,151.9,25.17,226.72a134.86,134.86,0,0,0,14.61,61.21" transform="translate(-24.17 -21.57)"/></g><g id="Layer_3" data-name="Layer 3"><path d="M160.84,104.66A122,122,0,0,0,69.27,307.31l1.09-.26a121.55,121.55,0,0,1-16-22.72,121.41,121.41,0,1,1,16,22.72l-1.09.26a122,122,0,1,0,91.57-202.65Z" transform="translate(-24.17 -21.57)"/><path d="M183.15,92.62l-.77-.63c.33-.41,8-9.87.18-17.87H143.33c-5.62,4.79-1.68,16.14-1.63,16.25l-.95.34c-.17-.5-4.27-12.32,2.08-17.48l.14-.11h40l.14.14C191.81,82,183.24,92.52,183.15,92.62Z" transform="translate(-24.17 -21.57)"/><path d="M163.17,75.65a27,27,0,1,1,27-27A27.07,27.07,0,0,1,163.17,75.65Zm0-53.08a26,26,0,1,0,26,26A26.07,26.07,0,0,0,163.17,22.57Z" transform="translate(-24.17 -21.57)"/></g><g id="Layer_6" data-name="Layer 6"><path d="M163.17,65.65a17,17,0,1,1,17-17A17.05,17.05,0,0,1,163.17,65.65Zm0-33.08a16,16,0,1,0,16,16A16.06,16.06,0,0,0,163.17,32.57Z" transform="translate(-24.17 -21.57)"/></g><g id="Layer_5" data-name="Layer 5"><path class="cls-1" d="M167.77,239.53a12.81,12.81,0,1,1,12.81-12.81A12.82,12.82,0,0,1,167.77,239.53Zm0-24.62a11.81,11.81,0,1,0,11.81,11.81A11.81,11.81,0,0,0,167.77,214.91Z" transform="translate(-24.17 -21.57)"/><circle class="cls-1" cx="137.73" cy="96.96" r="3.75"/><circle class="cls-1" cx="215.44" cy="128.5" r="3.75"/><circle class="cls-1" cx="247.36" cy="206.3" r="3.75"/><circle class="cls-1" cx="215.44" cy="282.18" r="3.75"/><circle class="cls-1" cx="137.73" cy="314.1" r="3.75"/><circle class="cls-1" cx="60.51" cy="282.18" r="3.75"/><circle class="cls-1" cx="29.35" cy="206.3" r="3.75"/><circle class="cls-1" cx="62.05" cy="128.5" r="3.75"/></g><g id="Layer_4" data-name="Layer 4"><path class="cls-1" d="M182.8,209.38,167,146.15,151.2,211.68l-69,15.06,69,13.48L167,309.8,182,241l71.12-14.22Zm-1.28,30.69-.32.07L167,305.2l-15-65.83L87.15,226.69l64.57-14.1.3-.07,15-62.18,15,59.86,66.59,16.46Z" transform="translate(-24.17 -21.57)"/></g></svg>