<svg xmlns="http://www.w3.org/2000/svg" viewBox="0 0 359.43 456.15"><defs><style>.cls-1{fill:none;}.cls-2{fill:#020202;}</style></defs><title>compass broken</title><g id="Layer_7" data-name="Layer 7"><path class="cls-1" d="M160.84,362.39c74.81,0,135.68-60.86,135.68-135.67a134.84,134.84,0,0,0-15.77-63.43l-9.42,11.59A122,122,0,0,1,69.27,307.31a120.08,120.08,0,0,1-7.59-9.53L51,306.19A135.58,135.58,0,0,0,160.84,362.39Z" transform="translate(-13.16 -21.57)"/><path class="cls-1" d="M160.84,363.39A136.57,136.57,0,0,1,50.17,306.81l-37,29.06L39.69,454.26l308.6,23.46,24.3-273.3-65-74.13-26.15,32.16a135.81,135.81,0,0,1,16.09,64.27C297.52,302.08,236.2,363.39,160.84,363.39Z" transform="translate(-13.16 -21.57)"/><path class="cls-1" d="M163.17,32.57a16,16,0,1,0,16,16A16.06,16.06,0,0,0,163.17,32.57Z" transform="translate(-13.16 -21.57)"/><path class="cls-1" d="M189.21,48.61a26,26,0,1,0-34.86,24.51H172A26.08,26.08,0,0,0,189.21,48.61Zm-26,17a17,17,0,1,1,17-17A17.05,17.05,0,0,1,163.17,65.65Z" transform="translate(-13.16 -21.57)"/><path class="cls-1" d="M155,226.72a12.81,12.81,0,0,1,24.1-6l9.17-8.93L182,210.2l-15-59.86-15,62.18-.3.07-64.57,14.1L152,239.37l1.41,6.24,8-7.78A12.79,12.79,0,0,1,155,226.72Z" transform="translate(-13.16 -21.57)"/><path class="cls-1" d="M38.79,226.72a122.05,122.05,0,0,1,232.07-52.85l9.38-11.54A135.8,135.8,0,0,0,160.84,91C86,91,25.17,151.9,25.17,226.72a134.72,134.72,0,0,0,25.21,78.66L61.09,297A121.34,121.34,0,0,1,38.79,226.72Z" transform="translate(-13.16 -21.57)"/><path class="cls-1" d="M181.2,240.14l.32-.07,67-13.41L189.37,212l-9.86,9.59a12.78,12.78,0,0,1-17.14,16.7l-8.67,8.43L167,305.2Z" transform="translate(-13.16 -21.57)"/><path class="cls-1" d="M160.84,105.66A121,121,0,0,0,54.4,284.33a122.41,122.41,0,0,0,7.47,12l12-9.39,29.37,7.55,49.4-48.08-1.42-6.21-69-13.48,69-15.06L167,146.15l15.81,63.23,6.27,1.55,7.35-7.16,54.18-5,19.56-24A121.22,121.22,0,0,0,160.84,105.66Zm-107.32,126a3.75,3.75,0,1,1,3.75-3.75A3.75,3.75,0,0,1,53.52,231.62Zm32.7-77.8A3.75,3.75,0,1,1,90,150.07,3.74,3.74,0,0,1,86.22,153.82Zm75.68-31.54a3.75,3.75,0,1,1,3.75-3.75A3.75,3.75,0,0,1,161.9,122.28Zm77.7,31.54a3.75,3.75,0,1,1,3.75-3.75A3.75,3.75,0,0,1,239.6,153.82Z" transform="translate(-13.16 -21.57)"/><path class="cls-1" d="M163.17,74.65a26.27,26.27,0,0,0,5.28-.53H157.89A26.19,26.19,0,0,0,163.17,74.65Z" transform="translate(-13.16 -21.57)"/><path class="cls-1" d="M167.77,238.53a11.78,11.78,0,0,0,11-16.15l-15.61,15.19A11.57,11.57,0,0,0,167.77,238.53Z" transform="translate(-13.16 -21.57)"/><path class="cls-1" d="M167.77,214.91a11.81,11.81,0,0,0-5.6,22.2l16.13-15.7A11.81,11.81,0,0,0,167.77,214.91Z" transform="translate(-13.16 -21.57)"/><path class="cls-1" d="M250.9,199.77l-54,5-6.65,6.47,62.94,15.56L182,241,167,309.8l-14.15-62.23-49.35,48.05-29.45-7.57-11.6,9.11a123.54,123.54,0,0,0,7.9,9.89A121,121,0,0,0,270.63,175.74l-19.52,24ZM84.68,307.5a3.75,3.75,0,1,1,3.75-3.75A3.75,3.75,0,0,1,84.68,307.5Zm77.22,31.92a3.75,3.75,0,1,1,3.75-3.75A3.74,3.74,0,0,1,161.9,339.42Zm77.7-31.92a3.75,3.75,0,1,1,3.75-3.75A3.75,3.75,0,0,1,239.6,307.5Zm31.93-83.38a3.75,3.75,0,1,1-3.75,3.75A3.75,3.75,0,0,1,271.53,224.12Z" transform="translate(-13.16 -21.57)"/><path d="M308.64,240.19c0,74.81-60.87,135.68-135.68,135.68a135.58,135.58,0,0,1-109.88-56.2l-.79.62A136.57,136.57,0,0,0,173,376.87c75.36,0,136.68-61.31,136.68-136.68a135.8,135.8,0,0,0-16.09-64.26l-.68.84A134.82,134.82,0,0,1,308.64,240.19Z" transform="translate(-13.16 -21.57)"/><path d="M39.78,287.93a134.86,134.86,0,0,1-14.61-61.21C25.17,151.9,86,91,160.84,91a135.8,135.8,0,0,1,119.4,71.29l.68-.84A137.08,137.08,0,0,0,183.65,92a6.53,6.53,0,0,1-.5.67l-.77-.63.17-.22A137.47,137.47,0,0,0,160.84,90C85.48,90,24.17,151.35,24.17,226.72A135.91,135.91,0,0,0,49.58,306l.8-.62A136.1,136.1,0,0,1,39.78,287.93Z" transform="translate(-13.16 -21.57)"/><path d="M62.46,297.16l-.78.62a120.08,120.08,0,0,0,7.59,9.53l1.09-.26A123.54,123.54,0,0,1,62.46,297.16Z" transform="translate(-13.16 -21.57)"/><path d="M294,240.19A121,121,0,0,1,82.48,320.53l-1.09.26A122,122,0,0,0,283.45,188.36l-.7.86A120.41,120.41,0,0,1,294,240.19Z" transform="translate(-13.16 -21.57)"/><path d="M54.4,284.33A121,121,0,1,1,270.16,174.74l.7-.87A122,122,0,1,0,61.09,297l.78-.61A122.41,122.41,0,0,1,54.4,284.33Z" transform="translate(-13.16 -21.57)"/><path d="M143,73.12l-.14.11c-6.35,5.16-2.25,17-2.08,17.48l.95-.34c0-.11-4-11.46,1.63-16.25h10.86c-.83-.3-1.65-.63-2.44-1Z" transform="translate(-13.16 -21.57)"/><path d="M157.89,74.12h10.56a26,26,0,0,0,3.53-1H154.35A26.52,26.52,0,0,0,157.89,74.12Z" transform="translate(-13.16 -21.57)"/><path d="M183.12,73.26l-.14-.14h-8.39c-.8.37-1.61.7-2.44,1h10.41c7.26,7.45,1.14,16.16,0,17.65l1.1.18C185.36,89.5,190.55,80.69,183.12,73.26Z" transform="translate(-13.16 -21.57)"/><path d="M183.15,92.62a6.53,6.53,0,0,0,.5-.67l-1.1-.18-.17.22Z" transform="translate(-13.16 -21.57)"/><path d="M163.17,74.65a26.19,26.19,0,0,1-5.28-.53h-3.7a27.12,27.12,0,0,0,18,0h-3.7A26.27,26.27,0,0,1,163.17,74.65Z" transform="translate(-13.16 -21.57)"/><path d="M137.13,48.61A26,26,0,1,1,172,73.12h2.61a27,27,0,1,0-22.84,0h2.6A26.09,26.09,0,0,1,137.13,48.61Z" transform="translate(-13.16 -21.57)"/><path d="M154.35,73.12h-2.6c.79.37,1.61.7,2.44,1h3.7A26.52,26.52,0,0,1,154.35,73.12Z" transform="translate(-13.16 -21.57)"/><path d="M172,73.12a26,26,0,0,1-3.53,1h3.7c.83-.3,1.64-.63,2.44-1Z" transform="translate(-13.16 -21.57)"/><path d="M163.17,31.57a17,17,0,1,0,17,17A17.06,17.06,0,0,0,163.17,31.57Zm0,33.08a16,16,0,1,1,16-16A16.05,16.05,0,0,1,163.17,64.65Z" transform="translate(-13.16 -21.57)"/><path class="cls-2" d="M191.7,240.19a11.81,11.81,0,0,1-16.45,10.86l-.76.74a12.68,12.68,0,0,0,5.4,1.21,12.78,12.78,0,0,0,11.74-17.9l-.77.76A11.76,11.76,0,0,1,191.7,240.19Z" transform="translate(-13.16 -21.57)"/><path class="cls-2" d="M156,226.72a11.8,11.8,0,0,1,22.34-5.31l.76-.73a12.8,12.8,0,1,0-17.63,17.15l.74-.72A11.82,11.82,0,0,1,156,226.72Z" transform="translate(-13.16 -21.57)"/><circle class="cls-2" cx="148.74" cy="96.96" r="3.75"/><circle class="cls-2" cx="226.44" cy="128.5" r="3.75"/><circle class="cls-2" cx="270.49" cy="219.78" r="3.75"/><circle class="cls-2" cx="238.56" cy="295.65" r="3.75"/><circle class="cls-2" cx="160.86" cy="327.58" r="3.75"/><path class="cls-2" d="M96.8,313.47a3.75,3.75,0,1,0,3.75,3.75A3.75,3.75,0,0,0,96.8,313.47Z" transform="translate(-13.16 -21.57)"/><circle class="cls-2" cx="40.36" cy="206.3" r="3.75"/><circle class="cls-2" cx="73.05" cy="128.5" r="3.75"/><polygon class="cls-2" points="247.52 218.57 180.47 231.98 180.15 232.05 165.94 297.11 152.66 238.66 151.82 239.48 165.96 301.7 180.99 232.9 252.11 218.68 189.17 203.12 188.33 203.94 247.52 218.57"/><polygon class="cls-2" points="138.86 217.8 73.98 205.12 138.56 191.02 138.86 190.95 153.84 128.77 168.81 188.63 175.06 190.18 175.91 189.36 169.63 187.81 153.83 124.58 138.04 190.11 69.05 205.17 138.03 218.65 139.44 224.86 140.28 224.04 138.86 217.8"/><path d="M208.54,217.25l-7.35,7.16,1.14.28,6.65-6.47,54-5,.21,0,19.52-24-.47-1-19.56,24.06Z" transform="translate(-13.16 -21.57)"/><path d="M283.45,188.36l9.42-11.59-.51-1L283,187.35Z" transform="translate(-13.16 -21.57)"/><path d="M73.21,310.44,62.5,318.85c.19.28.39.55.58.82l10.72-8.41C73.6,311,73.4,310.72,73.21,310.44Z" transform="translate(-13.16 -21.57)"/><path d="M115.63,309.1,165,261.05l-.25-1.14L115.33,308,86,300.44l-12,9.39.59.81,11.6-9.11Z" transform="translate(-13.16 -21.57)"/><path d="M175.25,251.05l15.61-15.19a10.63,10.63,0,0,0-.44-1l-16.13,15.7A10.59,10.59,0,0,0,175.25,251.05Z" transform="translate(-13.16 -21.57)"/><path d="M191.63,235.1l9.86-9.59-1.14-.28-9.17,8.92C191.34,234.46,191.49,234.78,191.63,235.1Z" transform="translate(-13.16 -21.57)"/><path d="M173.55,251.31l-8,7.78.25,1.14,8.67-8.44A9.25,9.25,0,0,1,173.55,251.31Z" transform="translate(-13.16 -21.57)"/><path d="M51,306.19l-.58-.81-.8.62c.19.28.39.54.59.81Z" transform="translate(-13.16 -21.57)"/><path d="M280.75,163.29l.68-.84c-.17-.32-.33-.64-.51-1l-.68.84Z" transform="translate(-13.16 -21.57)"/><path d="M270.16,174.74c.16.33.31.67.47,1l.7-.86c-.16-.33-.31-.67-.47-1Z" transform="translate(-13.16 -21.57)"/><path d="M61.87,296.35l-.78.61c.19.28.39.55.59.82l.78-.62Z" transform="translate(-13.16 -21.57)"/><path d="M162.17,237.11l-.74.72c.31.18.62.34.94.49l.76-.75A10.59,10.59,0,0,1,162.17,237.11Z" transform="translate(-13.16 -21.57)"/><path d="M178.3,221.41c.16.32.31.64.44,1l.77-.76c-.14-.32-.29-.64-.45-.94Z" transform="translate(-13.16 -21.57)"/><polygon points="176.21 190.46 177.05 189.64 175.91 189.36 175.06 190.18 176.21 190.46"/><polygon points="140.54 225.18 140.28 224.04 139.44 224.86 139.7 226 140.54 225.18"/></g></svg>