<svg id="Layer_2" data-name="Layer 2" xmlns="http://www.w3.org/2000/svg" viewBox="0 0 183.71 197.81"><defs><style>.cls-1,.cls-3,.cls-4{fill:none;stroke-miterlimit:10;}.cls-1,.cls-3{stroke:#fff;}.cls-1{stroke-width:2px;}.cls-2,.cls-5{fill:#fff;}.cls-4{stroke:#000;}.cls-5{font-size:10.6px;font-family:Montserrat-Light, Montserrat;font-weight:300;}</style></defs><title>logo travel Wihte</title><line class="cls-1" x1="100.6" y1="64.21" x2="100.6" y2="25.97"/><line class="cls-1" x1="100.68" y1="16.57" x2="95.07" y2="23.16"/><line class="cls-1" x1="106.13" y1="23.16" x2="99.98" y2="16.88"/><path class="cls-1" d="M114.74,66.55c-39.62-3.68-47.91,29-47.91,29-2.3,6.45-2.3,18.89-2.3,18.89" transform="translate(-6.31 -8.34)"/><path class="cls-1" d="M64.53,141.65c39.15,35.47,75.09,9.67,75.09,9.67A50.23,50.23,0,0,0,153,134.74" transform="translate(-6.31 -8.34)"/><line class="cls-1" x1="50.85" y1="99.68" x2="20.9" y2="99.68"/><line class="cls-1" x1="83.33" y1="82.03" x2="118.3" y2="117"/><line class="cls-1" x1="111.66" y1="96.46" x2="166.48" y2="96.46"/><line class="cls-1" x1="146.67" y1="150.36" x2="136.51" y2="140.19"/><line class="cls-1" x1="100.81" y1="152.03" x2="100.81" y2="119.95"/><circle class="cls-2" cx="100.83" cy="161.87" r="1.5"/><circle class="cls-2" cx="100.78" cy="170.22" r="1.44"/><circle class="cls-2" cx="151.65" cy="157.58" r="1.64"/><circle class="cls-2" cx="100.07" cy="98.77" r="3.44"/><circle class="cls-2" cx="151.65" cy="109.01" r="1.64"/><circle class="cls-2" cx="133.54" cy="75.15" r="1.64"/><circle class="cls-2" cx="147.45" cy="75.15" r="1.64"/><circle class="cls-2" cx="139.07" cy="64.21" r="1.64"/><circle class="cls-2" cx="125.25" cy="67.89" r="1.64"/><circle class="cls-2" cx="129.43" cy="56.29" r="1.64"/><circle class="cls-2" cx="118.34" cy="63.11" r="1.64"/><circle class="cls-2" cx="139.07" cy="86.03" r="1.64"/><circle class="cls-2" cx="151.65" cy="86.03" r="1.64"/><circle class="cls-2" cx="105.04" cy="137" r="1.73"/><circle class="cls-2" cx="127.7" cy="126.4" r="1.73"/><circle class="cls-2" cx="116.96" cy="133.89" r="1.38"/><circle class="cls-2" cx="76.19" cy="98.77" r="1.38"/><circle class="cls-2" cx="100.6" cy="74.89" r="1.38"/><circle class="cls-2" cx="100.81" cy="83.41" r="1.38"/><circle class="cls-2" cx="87.43" cy="97.39" r="1.38"/><circle class="cls-2" cx="89.14" cy="135.99" r="1.71"/><circle class="cls-2" cx="77.57" cy="131.12" r="1.38"/><circle class="cls-2" cx="62.19" cy="114.19" r="1.38"/><circle class="cls-2" cx="67.38" cy="121.97" r="1.99"/><circle class="cls-2" cx="50.85" cy="121.97" r="1.99"/><line class="cls-3" x1="67.38" y1="62.57" x2="61.23" y2="56.42"/><line class="cls-3" x1="54.3" y1="45.09" x2="54.3" y2="54.65"/><line class="cls-3" x1="48.86" y1="49.87" x2="58.22" y2="49.87"/><path class="cls-4" d="M57.15,53.43" transform="translate(-6.31 -8.34)"/><line class="cls-3" x1="48.86" y1="46.01" x2="56.84" y2="51.77"/><circle class="cls-2" cx="101.4" cy="8.22" r="0.8"/><circle class="cls-2" cx="101" cy="1.57" r="1.57"/><text class="cls-5" transform="translate(0 102.22)">W</text><text class="cls-5" transform="translate(176.62 99.52)">E</text><text class="cls-5" transform="translate(98.49 195.04)">S</text></svg>